<?xml version="1.0" encoding="UTF-8" standalone="no"?>
<svg width="335px" height="98px" viewBox="0 0 335 98" version="1.1" xmlns="http://www.w3.org/2000/svg" xmlns:xlink="http://www.w3.org/1999/xlink" xmlns:sketch="http://www.bohemiancoding.com/sketch/ns">
    <title>Slice 1</title>
    <description>Created with Sketch (http://www.bohemiancoding.com/sketch)</description>
    <defs></defs>
    <g id="Page-1" stroke="none" stroke-width="1" fill="none" fill-rule="evenodd" sketch:type="MSPage">
        <g id="COMBRAY_WWW_outlineFONT" sketch:type="MSLayerGroup" transform="translate(0.000000, 1.000000)">
            <path d="M21.033,62.241 L21.033,63.669 C20.896,63.454 20.653,63.159 20.301,62.785 C19.996,62.445 19.644,62.156 19.248,61.919 C19.078,61.816 18.896,61.72 18.704,61.63 C18.08,61.347 17.4,61.204 16.664,61.204 C15.927,61.204 15.249,61.343 14.632,61.62 C14.014,61.898 13.481,62.278 13.034,62.76 C12.586,63.241 12.238,63.806 11.988,64.451 C11.739,65.097 11.615,65.788 11.615,66.525 L11.615,66.559 C11.615,67.296 11.742,67.99 11.997,68.642 C12.252,69.294 12.603,69.86 13.051,70.342 C13.499,70.823 14.034,71.206 14.658,71.489 C15.281,71.772 15.96,71.914 16.698,71.914 C17.434,71.914 18.114,71.772 18.737,71.489 C18.908,71.41 19.078,71.325 19.248,71.234 C19.826,70.894 20.233,70.622 20.472,70.419 L20.472,67.171 L16.511,67.171 L16.511,66.339 L21.338,66.339 L21.338,70.775 C20.896,71.24 20.2,71.699 19.248,72.152 C19.202,72.175 19.157,72.192 19.111,72.203 C18.374,72.544 17.559,72.714 16.664,72.714 C15.757,72.714 14.938,72.546 14.207,72.212 C13.476,71.878 12.85,71.43 12.329,70.868 C11.807,70.308 11.405,69.659 11.122,68.923 C10.838,68.186 10.696,67.409 10.696,66.593 L10.696,66.559 C10.696,65.743 10.841,64.964 11.13,64.222 C11.419,63.48 11.824,62.825 12.346,62.259 C12.867,61.692 13.496,61.241 14.232,60.907 C14.969,60.573 15.79,60.405 16.698,60.405 C17.593,60.405 18.409,60.575 19.145,60.915 C19.18,60.927 19.213,60.938 19.248,60.949 C19.905,61.267 20.472,61.669 20.948,62.156 C20.981,62.19 21.01,62.219 21.033,62.241" id="Fill-1" fill="#952D31" sketch:type="MSShapeGroup"></path>
            <path d="M70.706,68.361 L67.477,61.511 L64.434,68.361 L70.706,68.361 L70.706,68.361 Z M61.578,72.509 L67.052,60.575 L67.902,60.575 L73.58,72.509 L72.594,72.509 L71.063,69.144 L64.077,69.144 L62.496,72.509 L61.578,72.509 L61.578,72.509 Z" id="Fill-2" fill="#952D31" sketch:type="MSShapeGroup"></path>
            <path d="M115.178,71.693 L122.182,71.693 L122.182,72.509 L114.345,72.509 L114.345,60.575 L115.178,60.575 L115.178,71.693" id="Fill-3" fill="#952D31" sketch:type="MSShapeGroup"></path>
            <path d="M164.478,71.693 L171.482,71.693 L171.482,72.509 L163.645,72.509 L163.645,60.575 L164.478,60.575 L164.478,71.693" id="Fill-4" fill="#952D31" sketch:type="MSShapeGroup"></path>
            <path d="M213.778,71.677 L221.36,71.677 L221.36,72.509 L212.945,72.509 L212.979,60.575 L221.36,60.575 L221.36,61.425 L213.778,61.425 L213.778,66.101 L220.612,66.101 L220.612,66.933 L213.778,66.933 L213.778,71.677" id="Fill-5" fill="#952D31" sketch:type="MSShapeGroup"></path>
            <path d="M263.775,66.78 L267.362,66.78 C268.71,66.769 269.694,66.515 270.311,66.015 C270.929,65.517 271.238,64.792 271.238,63.839 C271.238,63.091 270.923,62.499 270.294,62.063 C269.666,61.626 268.903,61.408 268.007,61.408 L263.775,61.408 L263.775,66.78 L263.775,66.78 Z M262.908,72.509 L262.908,60.575 L267.787,60.575 C268.104,60.575 268.435,60.604 268.781,60.66 C269.126,60.718 269.503,60.821 269.912,60.975 C270.32,61.128 270.682,61.321 271,61.553 C271.317,61.785 271.581,62.1 271.791,62.496 C272,62.894 272.105,63.341 272.105,63.839 C272.105,64.87 271.791,65.687 271.162,66.287 C270.532,66.888 269.708,67.273 268.688,67.443 L272.598,72.509 L271.493,72.509 L267.702,67.613 L267.633,67.613 L267.566,67.613 L263.775,67.613 L263.775,72.509 L262.908,72.509 L262.908,72.509 Z" id="Fill-6" fill="#952D31" sketch:type="MSShapeGroup"></path>
            <path d="M315.981,67.817 L310.916,60.575 L311.969,60.575 L316.458,66.95 L320.843,60.575 L322,60.575 L316.866,67.783 L316.866,72.509 L315.981,72.509 L315.981,67.817" id="Fill-7" fill="#952D31" sketch:type="MSShapeGroup"></path>
            <path d="M0,52.898 L334.067,52.898" id="Stroke-8" stroke="#1A1918" stroke-width="0.731" sketch:type="MSShapeGroup"></path>
            <path d="M33.592,6.207 L33.592,10.827 C33.152,10.131 32.364,9.177 31.227,7.967 C30.237,6.866 29.101,5.932 27.817,5.162 C27.268,4.832 26.681,4.52 26.058,4.227 C24.04,3.311 21.84,2.852 19.458,2.852 C17.074,2.852 14.883,3.301 12.885,4.199 C10.886,5.098 9.163,6.326 7.715,7.884 C6.266,9.443 5.139,11.267 4.333,13.356 C3.525,15.446 3.123,17.684 3.123,20.067 L3.123,20.177 C3.123,22.561 3.535,24.806 4.36,26.914 C5.185,29.022 6.321,30.856 7.77,32.414 C9.218,33.974 10.951,35.21 12.967,36.127 C14.983,37.044 17.184,37.502 19.567,37.502 C21.951,37.502 24.15,37.044 26.167,36.127 C26.717,35.87 27.268,35.596 27.817,35.302 C29.101,34.532 30.273,33.597 31.337,32.497 C32.07,31.653 32.73,30.756 33.317,29.802 L33.317,34.312 C31.777,35.926 29.943,37.245 27.817,38.272 C27.67,38.346 27.523,38.401 27.377,38.437 C24.994,39.536 22.354,40.087 19.458,40.087 C16.523,40.087 13.875,39.546 11.51,38.464 C9.145,37.384 7.119,35.935 5.433,34.119 C3.746,32.304 2.443,30.206 1.527,27.821 C0.61,25.438 0.152,22.927 0.152,20.286 L0.152,20.177 C0.152,17.536 0.62,15.017 1.555,12.614 C2.49,10.214 3.8,8.096 5.487,6.262 C7.173,4.429 9.209,2.971 11.592,1.889 C13.976,0.808 16.634,0.267 19.567,0.267 C22.463,0.267 25.104,0.817 27.487,1.917 C27.598,1.954 27.708,1.991 27.817,2.027 C29.943,3.054 31.777,4.355 33.317,5.932 L33.592,6.207" id="Fill-10" fill="#1A1918" sketch:type="MSShapeGroup"></path>
            <path d="M140.841,39.427 L138.146,39.427 L138.146,5.547 L123.241,28.097 L122.856,28.097 L107.401,5.602 L107.401,39.427 L104.706,39.427 L104.706,0.817 L107.401,0.817 L123.076,23.587 L138.531,0.817 L140.841,0.817 L140.841,39.427" id="Fill-11" fill="#1A1918" sketch:type="MSShapeGroup"></path>
            <path d="M161.795,21.387 L161.795,36.731 L175.545,36.731 C177.781,36.731 179.679,36.484 181.237,35.989 C182.795,35.494 183.941,34.835 184.675,34.009 C185.408,33.185 185.931,32.351 186.242,31.507 C186.554,30.663 186.673,29.784 186.6,28.866 C186.6,27.73 186.407,26.741 186.022,25.897 C185.637,25.054 184.986,24.274 184.07,23.56 C183.153,22.845 181.86,22.304 180.192,21.937 C178.523,21.571 176.48,21.387 174.06,21.387 L161.795,21.387 L161.795,21.387 Z M161.795,11.706 L161.795,18.692 L173.4,18.692 C175.16,18.655 176.672,18.491 177.938,18.196 C179.203,17.903 180.201,17.556 180.935,17.151 C181.668,16.749 182.291,16.198 182.805,15.502 C183.318,14.806 183.666,14.163 183.85,13.577 C184.033,12.991 184.216,12.257 184.4,11.377 C184.436,9.911 184.235,8.663 183.795,7.637 C183.355,6.61 182.704,5.813 181.842,5.244 C180.98,4.676 180.055,4.264 179.065,4.007 C178.075,3.75 176.883,3.585 175.49,3.512 L161.795,3.512 L161.795,11.706 L161.795,11.706 Z M161.685,0.817 L174.775,0.817 C174.848,0.853 175.188,0.891 175.792,0.927 C176.397,0.964 176.965,1.009 177.498,1.064 C178.028,1.119 178.708,1.239 179.532,1.422 C180.357,1.605 181.108,1.826 181.788,2.082 C182.465,2.339 183.181,2.714 183.933,3.209 C184.684,3.704 185.308,4.273 185.802,4.914 C186.297,5.556 186.71,6.372 187.04,7.362 C187.37,8.352 187.535,9.434 187.535,10.606 C187.535,15.044 185.151,18.087 180.385,19.737 C180.898,19.774 181.458,19.856 182.063,19.984 C182.667,20.113 183.446,20.388 184.4,20.81 C185.353,21.231 186.188,21.754 186.902,22.377 C187.617,23.001 188.24,23.881 188.772,25.017 C189.304,26.153 189.57,27.474 189.57,28.977 C189.57,30.884 189.13,32.552 188.25,33.981 C187.37,35.411 186.206,36.503 184.757,37.255 C183.309,38.007 181.815,38.556 180.275,38.904 C178.735,39.253 177.14,39.427 175.49,39.427 L158.99,39.427 L158.99,0.817 L161.685,0.817 L161.685,0.817 Z" id="Fill-12" fill="#1A1918" sketch:type="MSShapeGroup"></path>
            <path d="M210.194,20.892 L221.799,20.892 C226.163,20.855 229.342,20.03 231.342,18.417 C233.34,16.804 234.339,14.456 234.339,11.377 C234.339,8.956 233.322,7.041 231.287,5.629 C229.252,4.218 226.786,3.512 223.889,3.512 L210.194,3.512 L210.194,20.892 L210.194,20.892 Z M207.389,39.427 L207.389,0.817 L223.174,0.817 C224.2,0.817 225.273,0.909 226.391,1.092 C227.51,1.276 228.729,1.614 230.049,2.109 C231.37,2.604 232.542,3.228 233.569,3.979 C234.595,4.731 235.448,5.749 236.127,7.032 C236.805,8.315 237.145,9.764 237.145,11.377 C237.145,14.714 236.127,17.354 234.092,19.297 C232.057,21.241 229.389,22.487 226.089,23.036 L238.739,39.427 L235.165,39.427 L222.899,23.587 L222.679,23.587 L222.459,23.587 L210.194,23.587 L210.194,39.427 L207.389,39.427 L207.389,39.427 Z" id="Fill-13" fill="#1A1918" sketch:type="MSShapeGroup"></path>
            <path d="M284.553,26.007 L274.103,3.842 L264.258,26.007 L284.553,26.007 L284.553,26.007 Z M255.018,39.427 L272.728,0.817 L275.478,0.817 L293.848,39.427 L290.659,39.427 L285.708,28.536 L263.103,28.536 L257.989,39.427 L255.018,39.427 L255.018,39.427 Z" id="Fill-14" fill="#1A1918" sketch:type="MSShapeGroup"></path>
            <path d="M314.088,24.247 L297.699,0.817 L301.109,0.817 L315.628,21.442 L329.819,0.817 L333.559,0.817 L316.949,24.137 L316.949,39.427 L314.088,39.427 L314.088,24.247" id="Fill-15" fill="#1A1918" sketch:type="MSShapeGroup"></path>
            <path d="M18.818,91.985 L17.46,96.993 L17.039,96.993 L15.876,93.113 L14.756,96.993 L14.335,96.993 L12.921,91.985 L13.46,91.985 L14.546,95.845 L15.659,91.985 L16.08,91.985 L17.235,95.845 L18.286,91.985 L18.818,91.985" id="Fill-16" fill="#1A1918" sketch:type="MSShapeGroup"></path>
            <path d="M35.002,91.985 L33.644,96.993 L33.223,96.993 L32.061,93.113 L30.94,96.993 L30.519,96.993 L29.105,91.985 L29.644,91.985 L30.73,95.845 L31.843,91.985 L32.264,91.985 L33.419,95.845 L34.47,91.985 L35.002,91.985" id="Fill-17" fill="#1A1918" sketch:type="MSShapeGroup"></path>
            <path d="M51.186,91.985 L49.828,96.993 L49.407,96.993 L48.245,93.113 L47.124,96.993 L46.704,96.993 L45.289,91.985 L45.828,91.985 L46.914,95.845 L48.027,91.985 L48.448,91.985 L49.604,95.845 L50.654,91.985 L51.186,91.985" id="Fill-18" fill="#1A1918" sketch:type="MSShapeGroup"></path>
            <path d="M61.473,96.706 C61.473,96.552 61.599,96.419 61.76,96.419 C61.914,96.419 62.047,96.552 62.047,96.706 C62.047,96.867 61.914,96.993 61.76,96.993 C61.599,96.993 61.473,96.867 61.473,96.706" id="Fill-19" fill="#1A1918" sketch:type="MSShapeGroup"></path>
            <path d="M77.505,95.123 C77.225,96.223 76.23,97 75.082,97 C73.702,97 72.575,95.88 72.575,94.493 C72.575,93.113 73.702,91.985 75.082,91.985 C76.251,91.985 77.26,92.798 77.526,93.925 L76.987,93.925 C76.735,93.093 75.964,92.504 75.082,92.504 C73.982,92.504 73.093,93.4 73.093,94.493 C73.093,95.593 73.989,96.489 75.082,96.489 C75.943,96.489 76.7,95.929 76.966,95.123 L77.505,95.123" id="Fill-20" fill="#1A1918" sketch:type="MSShapeGroup"></path>
            <path d="M92.269,94.48 C92.269,93.394 91.386,92.511 90.3,92.511 C89.215,92.511 88.332,93.394 88.332,94.48 C88.332,95.564 89.215,96.454 90.3,96.454 C91.386,96.454 92.269,95.564 92.269,94.48 L92.269,94.48 Z M92.78,94.48 C92.78,95.852 91.666,96.966 90.3,96.966 C88.928,96.966 87.814,95.852 87.814,94.48 C87.814,93.106 88.928,91.993 90.3,91.993 C91.666,91.993 92.78,93.106 92.78,94.48 L92.78,94.48 Z" id="Fill-21" fill="#1A1918" sketch:type="MSShapeGroup"></path>
            <path d="M107.885,91.985 L107.885,96.993 L107.36,96.993 L107.36,93.38 L105.658,96.993 L105.272,96.993 L103.592,93.386 L103.592,96.993 L103.066,96.993 L103.066,91.985 L103.515,91.985 L105.469,96.167 L107.43,91.985 L107.885,91.985" id="Fill-22" fill="#1A1918" sketch:type="MSShapeGroup"></path>
            <path d="M121.142,95.613 C121.142,95.138 120.757,94.752 120.288,94.752 L118.705,94.752 L118.705,96.468 L120.288,96.468 C120.757,96.468 121.142,96.083 121.142,95.613 L121.142,95.613 Z M120.897,93.365 C120.897,92.896 120.512,92.511 120.035,92.511 L118.705,92.511 L118.705,94.227 L120.035,94.227 C120.512,94.227 120.897,93.841 120.897,93.365 L120.897,93.365 Z M121.667,95.613 C121.667,96.377 121.044,96.993 120.288,96.993 L118.172,96.993 L118.187,96.79 L118.187,91.985 L120.035,91.985 C120.799,91.985 121.415,92.608 121.415,93.365 C121.415,93.771 121.24,94.143 120.953,94.401 C121.38,94.64 121.667,95.095 121.667,95.613 L121.667,95.613 Z" id="Fill-23" fill="#1A1918" sketch:type="MSShapeGroup"></path>
            <path d="M132.481,94.227 L133.938,94.227 C134.407,94.227 134.792,93.841 134.792,93.365 C134.792,92.896 134.407,92.511 133.938,92.511 L132.481,92.511 L132.481,94.227 L132.481,94.227 Z M133.111,94.752 L135.64,96.993 L134.862,96.993 L132.481,94.871 L132.481,96.993 L131.956,96.993 L131.956,91.985 L133.938,91.985 C134.694,91.985 135.311,92.608 135.311,93.365 C135.311,94.128 134.694,94.752 133.938,94.752 L133.111,94.752 L133.111,94.752 Z" id="Fill-24" fill="#1A1918" sketch:type="MSShapeGroup"></path>
            <path d="M149.247,94.927 L148.33,92.833 L147.405,94.927 L149.247,94.927 L149.247,94.927 Z M148.526,91.985 L150.725,96.993 L150.158,96.993 L149.478,95.445 L147.174,95.445 L146.495,96.993 L145.927,96.993 L148.126,91.985 L148.526,91.985 L148.526,91.985 Z" id="Fill-25" fill="#1A1918" sketch:type="MSShapeGroup"></path>
            <path d="M162.043,94.577 L162.043,96.993 L161.518,96.993 L161.518,94.577 L159.62,91.985 L160.271,91.985 L161.784,94.052 L163.29,91.985 L163.941,91.985 L162.043,94.577" id="Fill-26" fill="#1A1918" sketch:type="MSShapeGroup"></path>
            <path d="M175.973,94.71 L178.529,94.71 L178.501,94.983 C178.368,96.174 177.241,96.993 176.043,96.993 C174.656,96.993 173.536,95.88 173.536,94.493 C173.536,93.113 174.656,91.985 176.043,91.985 C177.199,91.985 178.2,92.784 178.473,93.897 L177.934,93.897 C177.675,93.078 176.912,92.504 176.043,92.504 C174.943,92.504 174.054,93.4 174.054,94.493 C174.054,95.593 174.943,96.481 176.043,96.481 C176.862,96.481 177.584,95.984 177.885,95.235 L175.973,95.235 L175.973,94.71" id="Fill-27" fill="#1A1918" sketch:type="MSShapeGroup"></path>
            <path d="M191.443,94.927 L190.526,92.833 L189.602,94.927 L191.443,94.927 L191.443,94.927 Z M190.722,91.985 L192.921,96.993 L192.354,96.993 L191.674,95.445 L189.37,95.445 L188.691,96.993 L188.124,96.993 L190.323,91.985 L190.722,91.985 L190.722,91.985 Z" id="Fill-28" fill="#1A1918" sketch:type="MSShapeGroup"></path>
            <path d="M206.522,96.476 L206.522,96.993 L203.208,96.993 L203.208,91.985 L203.734,91.985 L203.734,96.476 L206.522,96.476" id="Fill-29" fill="#1A1918" sketch:type="MSShapeGroup"></path>
            <path d="M220.123,96.476 L220.123,96.993 L216.809,96.993 L216.809,91.985 L217.334,91.985 L217.334,96.476 L220.123,96.476" id="Fill-30" fill="#1A1918" sketch:type="MSShapeGroup"></path>
            <path d="M230.411,91.985 L233.709,91.985 L233.709,92.511 L230.936,92.511 L230.936,94.227 L232.959,94.227 L232.959,94.752 L230.936,94.752 L230.936,96.468 L233.709,96.468 L233.709,96.993 L230.411,96.993 L230.411,91.985" id="Fill-31" fill="#1A1918" sketch:type="MSShapeGroup"></path>
            <path d="M244.522,94.227 L245.979,94.227 C246.448,94.227 246.833,93.841 246.833,93.365 C246.833,92.896 246.448,92.511 245.979,92.511 L244.522,92.511 L244.522,94.227 L244.522,94.227 Z M245.153,94.752 L247.681,96.993 L246.904,96.993 L244.522,94.871 L244.522,96.993 L243.997,96.993 L243.997,91.985 L245.979,91.985 C246.735,91.985 247.352,92.608 247.352,93.365 C247.352,94.128 246.735,94.752 245.979,94.752 L245.153,94.752 L245.153,94.752 Z" id="Fill-32" fill="#1A1918" sketch:type="MSShapeGroup"></path>
            <path d="M259.699,94.577 L259.699,96.993 L259.174,96.993 L259.174,94.577 L257.276,91.985 L257.927,91.985 L259.44,94.052 L260.946,91.985 L261.597,91.985 L259.699,94.577" id="Fill-33" fill="#1A1918" sketch:type="MSShapeGroup"></path>
            <path d="M271.885,96.706 C271.885,96.552 272.011,96.419 272.172,96.419 C272.327,96.419 272.459,96.552 272.459,96.706 C272.459,96.867 272.327,96.993 272.172,96.993 C272.011,96.993 271.885,96.867 271.885,96.706" id="Fill-34" fill="#1A1918" sketch:type="MSShapeGroup"></path>
            <path d="M287.917,95.123 C287.637,96.223 286.643,97 285.495,97 C284.115,97 282.987,95.88 282.987,94.493 C282.987,93.113 284.115,91.985 285.495,91.985 C286.664,91.985 287.672,92.798 287.939,93.925 L287.399,93.925 C287.147,93.093 286.376,92.504 285.495,92.504 C284.395,92.504 283.505,93.4 283.505,94.493 C283.505,95.593 284.402,96.489 285.495,96.489 C286.356,96.489 287.112,95.929 287.378,95.123 L287.917,95.123" id="Fill-35" fill="#1A1918" sketch:type="MSShapeGroup"></path>
            <path d="M302.68,94.48 C302.68,93.394 301.798,92.511 300.712,92.511 C299.626,92.511 298.745,93.394 298.745,94.48 C298.745,95.564 299.626,96.454 300.712,96.454 C301.798,96.454 302.68,95.564 302.68,94.48 L302.68,94.48 Z M303.192,94.48 C303.192,95.852 302.079,96.966 300.712,96.966 C299.339,96.966 298.226,95.852 298.226,94.48 C298.226,93.106 299.339,91.993 300.712,91.993 C302.079,91.993 303.192,93.106 303.192,94.48 L303.192,94.48 Z" id="Fill-36" fill="#1A1918" sketch:type="MSShapeGroup"></path>
            <path d="M318.297,91.985 L318.297,96.993 L317.772,96.993 L317.772,93.38 L316.071,96.993 L315.685,96.993 L314.004,93.386 L314.004,96.993 L313.479,96.993 L313.479,91.985 L313.927,91.985 L315.881,96.167 L317.842,91.985 L318.297,91.985" id="Fill-37" fill="#1A1918" sketch:type="MSShapeGroup"></path>
            <path d="M83.798,20.191 C83.798,25.116 79.807,29.107 74.883,29.107 C69.96,29.107 65.969,25.116 65.969,20.191 C65.969,15.268 69.96,11.276 74.883,11.276 C79.807,11.276 83.798,15.268 83.798,20.191 L83.798,20.191 Z M78.576,7.584 C82.057,11.067 82.057,16.71 78.576,20.191 C75.094,23.674 69.449,23.674 65.969,20.191 C62.488,16.71 62.488,11.067 65.969,7.584 C69.449,4.103 75.094,4.103 78.576,7.584 L78.576,7.584 Z M65.969,2.362 C70.892,2.362 74.883,6.353 74.883,11.276 C74.883,16.2 70.892,20.191 65.969,20.191 C61.046,20.191 57.054,16.2 57.054,11.276 C57.054,6.353 61.046,2.362 65.969,2.362 L65.969,2.362 Z M53.361,7.584 C56.843,4.103 62.488,4.103 65.969,7.584 C69.449,11.067 69.449,16.71 65.969,20.191 C62.488,23.674 56.843,23.674 53.361,20.191 C49.881,16.71 49.881,11.067 53.361,7.584 L53.361,7.584 Z M48.14,20.191 C48.14,15.268 52.131,11.276 57.054,11.276 C61.978,11.276 65.969,15.268 65.969,20.191 C65.969,25.116 61.978,29.107 57.054,29.107 C52.131,29.107 48.14,25.116 48.14,20.191 L48.14,20.191 Z M53.361,32.8 C49.881,29.318 49.881,23.674 53.361,20.191 C56.843,16.71 62.488,16.71 65.969,20.191 C69.449,23.674 69.449,29.318 65.969,32.8 C62.488,36.28 56.843,36.28 53.361,32.8 L53.361,32.8 Z M65.969,38.021 C61.046,38.021 57.054,34.03 57.054,29.107 C57.054,24.183 61.046,20.191 65.969,20.191 C70.892,20.191 74.883,24.183 74.883,29.107 C74.883,34.03 70.892,38.021 65.969,38.021 L65.969,38.021 Z M78.576,32.8 C75.094,36.28 69.449,36.28 65.969,32.8 C62.488,29.318 62.488,23.674 65.969,20.191 C69.449,16.71 75.094,16.71 78.576,20.191 C82.057,23.674 82.057,29.318 78.576,32.8 L78.576,32.8 Z M82.475,13.318 C84.359,17.865 82.199,23.079 77.65,24.964 C73.101,26.847 67.886,24.689 66.002,20.14 C64.118,15.591 66.279,10.376 70.827,8.493 C75.376,6.608 80.591,8.768 82.475,13.318 L82.475,13.318 Z M72.826,3.667 C77.374,5.552 79.535,10.766 77.65,15.314 C75.767,19.865 70.551,22.024 66.002,20.14 C61.455,18.254 59.294,13.041 61.179,8.493 C63.062,3.942 68.277,1.783 72.826,3.667 L72.826,3.667 Z M59.18,3.667 C63.728,1.783 68.944,3.942 70.827,8.493 C72.711,13.041 70.551,18.254 66.002,20.14 C61.455,22.024 56.24,19.865 54.356,15.314 C52.471,10.766 54.631,5.552 59.18,3.667 L59.18,3.667 Z M49.531,13.318 C51.415,8.768 56.63,6.608 61.179,8.493 C65.727,10.376 67.886,15.591 66.002,20.14 C64.118,24.689 58.904,26.847 54.356,24.964 C49.807,23.079 47.646,17.865 49.531,13.318 L49.531,13.318 Z M49.531,26.964 C47.646,22.413 49.807,17.2 54.356,15.314 C58.904,13.431 64.118,15.591 66.002,20.14 C67.886,24.689 65.727,29.902 61.179,31.787 C56.63,33.671 51.414,31.513 49.531,26.964 L49.531,26.964 Z M59.18,36.612 C54.631,34.728 52.471,29.514 54.356,24.964 C56.24,20.415 61.455,18.254 66.002,20.14 C70.551,22.024 72.711,27.237 70.827,31.787 C68.944,36.338 63.728,38.495 59.18,36.612 L59.18,36.612 Z M72.826,36.612 C68.277,38.495 63.062,36.338 61.179,31.787 C59.294,27.237 61.455,22.024 66.002,20.14 C70.551,18.254 75.767,20.415 77.65,24.964 C79.535,29.514 77.374,34.728 72.826,36.612 L72.826,36.612 Z M82.475,26.964 C80.591,31.513 75.376,33.671 70.827,31.787 C66.279,29.902 64.118,24.689 66.002,20.14 C67.886,15.591 73.101,13.431 77.65,15.314 C82.199,17.2 84.359,22.413 82.475,26.964 L82.475,26.964 Z" id="Stroke-38" stroke="#AB2430" stroke-width="0.1" sketch:type="MSShapeGroup"></path>
            <path d="M65.969,-0.105 C54.777,-0.105 45.672,8.999 45.672,20.191 C45.672,31.383 54.777,40.488 65.969,40.488 C77.161,40.488 86.266,31.383 86.266,20.191 C86.266,8.999 77.161,-0.105 65.969,-0.105 L65.969,-0.105 Z M65.969,2.362 C75.815,2.362 83.798,10.345 83.798,20.191 C83.798,30.038 75.815,38.021 65.969,38.021 C56.123,38.021 48.14,30.038 48.14,20.191 C48.14,10.345 56.123,2.362 65.969,2.362 L65.969,2.362 Z" id="Fill-39" fill="#1A1918" sketch:type="MSShapeGroup"></path>
        </g>
    </g>
</svg>